# xmcd
#
# Track frame offsets:
# 150
# 16359
# 33519
# 46099
# 63060
# 77643
# 91665
# 110116
# 125072
# 141129
# 149505
# 166041
# 185401
# 198018
# 210718
# 225955
# 238491
# 254611
# 268227
# 284969
# 305824
# 325006
# 340953
#
# Disc length: 4736 seconds
#
#
# Revision: 0
# Processed by: cddbd v1.5.2PL0 Copyright (c) Steve Scherf et al.
# Submitted via: FreeRIP 2.96 
#
DISCID=58127e17
DTITLE=Larsson, Åsa - Weisse Nacht
DYEAR=2007
DGENRE=Speech
TTITLE0=023 Weisse Nacht
TTITLE1=024 Weisse Nacht
TTITLE2=025 Weisse Nacht
TTITLE3=026 Weisse Nacht
TTITLE4=027 Weisse Nacht
TTITLE5=028 Weisse Nacht
TTITLE6=029 Weisse Nacht
TTITLE7=030 Weisse Nacht
TTITLE8=031 Weisse Nacht
TTITLE9=032 Weisse Nacht
TTITLE10=033 Weisse Nacht
TTITLE11=034 Weisse Nacht
TTITLE12=035 Weisse Nacht
TTITLE13=036 Weisse Nacht
TTITLE14=037 Weisse Nacht
TTITLE15=038 Weisse Nacht
TTITLE16=039 Weisse Nacht
TTITLE17=040 Weisse Nacht
TTITLE18=041 Weisse Nacht
TTITLE19=042 Weisse Nacht
TTITLE20=043 Weisse Nacht
TTITLE21=044 Weisse Nacht
TTITLE22=045 Weisse Nacht
EXTD=gelesen von Nina Petri
EXTT0=
EXTT1=
EXTT2=
EXTT3=
EXTT4=
EXTT5=
EXTT6=
EXTT7=
EXTT8=
EXTT9=
EXTT10=
EXTT11=
EXTT12=
EXTT13=
EXTT14=
EXTT15=
EXTT16=
EXTT17=
EXTT18=
EXTT19=
EXTT20=
EXTT21=
EXTT22=
PLAYORDER=
